<?xml version="1.0" encoding="UTF-8"?>
<svg xmlns="http://www.w3.org/2000/svg" version="1.1" width="512px" height="512px"
    style="shape-rendering:geometricPrecision; text-rendering:geometricPrecision; image-rendering:optimizeQuality; fill-rule:evenodd; clip-rule:evenodd"
    xmlns:xlink="http://www.w3.org/1999/xlink">
    <g>
        <path style="opacity:0.993" fill="#fafafa"
            d="M 241.5,-0.5 C 251.167,-0.5 260.833,-0.5 270.5,-0.5C 320.608,8.76554 353.441,37.7655 369,86.5C 377.959,124.715 370.459,159.215 346.5,190C 401.27,182.138 443.77,201.304 474,247.5C 497.447,293.248 494.113,336.914 464,378.5C 427.782,418.898 383.616,431.065 331.5,415C 316.772,409.226 303.606,401.059 292,390.5C 290.788,409.629 291.788,428.629 295,447.5C 296.47,452.243 298.136,456.909 300,461.5C 307,474.167 314,486.833 321,499.5C 322.024,504.452 320.524,508.452 316.5,511.5C 275.833,511.5 235.167,511.5 194.5,511.5C 190.476,508.452 188.976,504.452 190,499.5C 195.333,490.167 200.667,480.833 206,471.5C 214.402,456.962 218.735,441.295 219,424.5C 219.667,413.167 219.667,401.833 219,390.5C 180.582,423.324 137.748,430.491 90.5,412C 42.5386,387.3 19.7052,347.8 22,293.5C 28.6609,248.173 52.8276,216.007 94.5,197C 117.155,187.417 140.489,185.084 164.5,190C 137.044,153.814 131.211,114.314 147,71.5C 165.701,30.6246 197.201,6.62459 241.5,-0.5 Z" />
    </g>
    <g>
        <path style="opacity:1" fill="#292c32"
            d="M 449.5,295.5 C 454.223,294.553 458.056,295.886 461,299.5C 462.294,341.094 444.127,370.594 406.5,388C 394.285,392.943 381.618,394.943 368.5,394C 361.34,387.306 362.007,381.639 370.5,377C 409.43,375.064 433.597,355.23 443,317.5C 443.966,311.87 444.633,306.204 445,300.5C 446.025,298.313 447.525,296.646 449.5,295.5 Z" />
    </g>
</svg>